# xmcd
# Copyright (c) 1998 CDDB Inc.
#
# Track frame offsets:
#	150
#	8597
#	29135
#	46392
#	61590
#	70041
#	85651
#	103074
#	120624
#	130393
#	161608
#
# Disc length: 2545 seconds
#
# Revision: 1
# Processed by: cddbd v1.4PL0 Copyright (c) Steve Scherf et al.
# Submitted via: AudioCatalyst 2.10full
#
DISCID=8909ef0b
DTITLE=Adiafa - Adiafa
DYEAR=1900
DGENRE=
TTITLE0=As meninas da Ribeira do Sado
TTITLE1=Meus Senhores
TTITLE2=Ana Maria
TTITLE3=Pêra Madura
TTITLE4=O Pavão
TTITLE5=Campaniça
TTITLE6=Não quero que vás à Monda
TTITLE7=Marcela
TTITLE8=Adiafa
TTITLE9=As Meninas da Ribeira do Sado (Remix)
TTITLE10=Data Track
EXTD=
EXTT0=
EXTT1=
EXTT2=
EXTT3=
EXTT4=
EXTT5=
EXTT6=
EXTT7=
EXTT8=
EXTT9=
EXTT10=
PLAYORDER=
